<?xml version="1.0" encoding="UTF-8" standalone="no"?>
<svg width="15px" height="15px" viewBox="0 0 15 15" version="1.1" xmlns="http://www.w3.org/2000/svg" xmlns:xlink="http://www.w3.org/1999/xlink" xmlns:sketch="http://www.bohemiancoding.com/sketch/ns">
    <!-- Generator: Sketch 3.0.4 (8053) - http://www.bohemiancoding.com/sketch -->
    <title>close</title>
    <desc>Created with Sketch.</desc>
    <defs></defs>
    <g id="Page-1" stroke="none" stroke-width="1" fill="none" fill-rule="evenodd" sketch:type="MSPage">
        <g id="close" sketch:type="MSLayerGroup" fill="#FFFFFF">
            <g id="Group" sketch:type="MSShapeGroup">
                <path d="M7.5,0 C3.358,0 0,3.358 0,7.5 C0,11.643 3.358,15 7.5,15 C11.643,15 15,11.643 15,7.5 C15,3.358 11.643,0 7.5,0 L7.5,0 Z M7.5,14 C3.916,14 1,11.084 1,7.5 C1,3.916 3.916,1 7.5,1 C11.084,1 14,3.916 14,7.5 C14,11.084 11.084,14 7.5,14 L7.5,14 Z" id="Shape"></path>
                <path d="M10.268,4.025 L7.52,6.774 L5.054,4.025 C4.859,3.83 4.542,3.83 4.347,4.025 C4.152,4.22 4.152,4.537 4.347,4.732 L6.813,7.481 L4.026,10.268 C3.831,10.463 3.831,10.78 4.026,10.975 C4.221,11.17 4.538,11.17 4.733,10.975 L7.482,8.227 L9.948,10.975 C10.142,11.17 10.46,11.17 10.654,10.975 C10.849,10.78 10.849,10.463 10.654,10.268 L8.188,7.52 L10.975,4.732 C11.17,4.537 11.17,4.22 10.975,4.025 C10.779,3.83 10.463,3.83 10.268,4.025 L10.268,4.025 Z" id="Shape"></path>
            </g>
        </g>
    </g>
</svg>